SEEDBOX SUPPORTED!!!!!

*******************************************************************************
                             Churchill's Leopards
*******************************************************************************

-------------------------------------------------------------------------------
                              General Information
-------------------------------------------------------------------------------
Type.................: Movie
Platform.............: AVI



Video Format.........: AVI
Video Bitrate........: 2000
Resolution...........: 720 x 540
Color................: 8 bit
FPS..................: 29.97
Source...............: DVD 4x3
Original Format......: NTSC
Genre................: War
IMDb Rating..........: 4.6
Movie Information....: http://www.imdb.com/title/tt0065975/

-------------------------------------------------------------------------------
                               Post Information
-------------------------------------------------------------------------------
Posted by............: RadioResearch
Posted on............: 1/19/2013

-------------------------------------------------------------------------------
                                 Release Notes
-------------------------------------------------------------------------------
A relatively obscure Klaus Kinski WWII spaghetti war movie.  Kinski plays a 
German SS Captain who suspects that an officer (Richard Harrison) in command of 
a dam that serves as a vital supply route to Normandy may not be the loyal 
German that he appears to be.  In fact, he's a British officer whose mission is 
to assist British commandoes and the French resistance in the destruction of the 
dam in the days before D-Day.



-------------------------------------------------------------------------------
Generated with Cool NFO Creator - http://fly.to/coolbeans
-------------------------------------------------------------------------------
General
Complete name                            : G:AVIChurchill's Leopards (1970)Churchills_Leopards_(1970).avi
Format                                   : AVI
Format/Info                              : Audio Video Interleave
Format profile                           : OpenDML
File size                                : 1.31 GiB
Duration                                 : 1h 24mn
Overall bit rate                         : 2 231 Kbps
Movie name                               : UNDEFINED
Writing application                      : MEncoder 5.0
Writing library                          : [= DigiArty videodll! =]
ID                                       : 0
Format                                   : MPEG-4 Visual
Format profile                           : Simple@L1
Format settings, BVOP                    : No
Format settings, QPel                    : No
Format settings, GMC                     : No warppoints
Format settings, Matrix                  : Default (H.263)
Codec ID                                 : DX50
Codec ID/Hint                            : DivX 5
Duration                                 : 1h 24mn
Bit rate                                 : 2 000 Kbps
Width                                    : 720 pixels
Height                                   : 540 pixels
Display aspect ratio                     : 4:3
Frame rate                               : 29.970 fps
Color space                              : YUV
Chroma subsampling                       : 4:2:0
Bit depth                                : 8 bits
Scan type                                : Progressive
Compression mode                         : Lossy
Bits/(Pixel*Frame)                       : 0.172
Stream size                              : 1.17 GiB (90%)
Writing library                          : Lavc54.71.100

Audio
ID                                       : 1
Format                                   : AC-3
Format/Info                              : Audio Coding 3
Mode extension                           : CM (complete main)
Format settings, Endianness              : Big
Codec ID                                 : 2000
Duration                                 : 1h 24mn
Bit rate mode                            : Constant
Bit rate                                 : 224 Kbps
Channel(s)                               : 2 channels
Channel positions                        : Front: L R
Sampling rate                            : 48.0 KHz
Bit depth                                : 16 bits
Compression mode                         : Lossy
Stream size                              : 135 MiB (10%)
Alignment                                : Split accross interleaves
Interleave, duration                     : 500 ms (14.98 video frames)
Interleave, preload duration             : 500 ms

